<?xml version="1.0" encoding="UTF-8" standalone="no"?>
<svg width="40px" height="40px" viewBox="0 0 40 40" version="1.1" xmlns="http://www.w3.org/2000/svg" xmlns:xlink="http://www.w3.org/1999/xlink">
    <!-- Generator: Sketch 40.2 (33826) - http://www.bohemiancoding.com/sketch -->
    <title>Oval 1</title>
    <desc>Created with Sketch.</desc>
    <defs></defs>
    <g id="Symbols" stroke="none" stroke-width="1" fill="none" fill-rule="evenodd">
        <g id="Footer" transform="translate(-1070.000000, -1155.000000)" fill="#FFFFFF">
            <g id="Group-10">
                <g id="Group" transform="translate(1020.000000, 1155.000000)">
                    <path d="M70,40 C81.0456955,40 90,31.0456955 90,20 C90,8.95430446 81.0456955,0 70,0 C58.9543045,0 50,8.95430446 50,20 C50,31.0456955 58.9543045,40 70,40 Z M70,37.6 C79.7202121,37.6 87.6,29.7202121 87.6,20 C87.6,10.2797879 79.7202121,2.4 70,2.4 C60.2797879,2.4 52.4,10.2797879 52.4,20 C52.4,29.7202121 60.2797879,37.6 70,37.6 Z M69.7458043,16.443438 L69.7839552,17.1008809 L69.1481067,17.0203777 C66.833618,16.711782 64.8116197,15.6652403 63.0948286,13.907587 L62.2555085,13.0354688 L62.0393201,13.6794945 C61.5815091,15.1151351 61.8739994,16.6312788 62.8277722,17.6509861 C63.3364511,18.2145085 63.2219983,18.2950118 62.3445274,17.9595817 C62.0393201,17.8522441 61.7722637,17.7717409 61.7468297,17.8119925 C61.657811,17.905913 61.9630182,19.1268782 62.2046407,19.6098975 C62.5352819,20.2807576 63.2092814,20.9382004 63.9468656,21.3272993 L64.5699972,21.6358949 L63.8324129,21.6493121 C63.1202625,21.6493121 63.0948286,21.6627293 63.1711305,21.9444905 C63.4254699,22.8166086 64.4301106,23.7423955 65.549204,24.1449115 L66.3376561,24.4266728 L65.6509397,24.8560232 C64.633582,25.4732145 63.4381868,25.8220617 62.2427916,25.8488961 C61.6705279,25.8623133 61.2,25.9159821 61.2,25.9562337 C61.2,26.0904057 62.7514704,26.841769 63.6543753,27.1369474 C66.3630901,28.0090656 69.5804837,27.6333839 71.9967081,26.1440746 C73.7134991,25.0841156 75.4302902,22.9776151 76.2314593,20.9382004 C76.6638363,19.8514071 77.0962133,17.8656613 77.0962133,16.91304 C77.0962133,16.2958488 77.1343643,16.2153456 77.8465146,15.4773995 C78.2661747,15.048049 78.6604008,14.578447 78.7367025,14.444275 C78.8638722,14.1893482 78.8511553,14.1893482 78.2025898,14.4174406 C77.1216473,14.8199566 76.9690436,14.7662878 77.5031564,14.1625138 C77.8973825,13.7331633 78.3679104,12.9549657 78.3679104,12.7268732 C78.3679104,12.6866216 78.1771558,12.7537076 77.9609674,12.8744624 C77.7320619,13.0086344 77.223383,13.2098925 76.8418739,13.3306473 L76.1551575,13.5587397 L75.5320259,13.115972 C75.1886677,12.8744624 74.7054228,12.6061184 74.4510834,12.5256152 C73.8025179,12.3377744 72.8105942,12.3646088 72.2256135,12.579284 C70.6359922,13.1830581 69.6313515,14.7394534 69.7458043,16.443438 C69.7458043,16.443438 69.6313515,14.7394534 69.7458043,16.443438 Z" id="Oval-1"></path>
                </g>
            </g>
        </g>
    </g>
</svg>