<?xml version="1.0" encoding="UTF-8" standalone="no"?>
<svg width="40px" height="40px" viewBox="0 0 40 40" version="1.1" xmlns="http://www.w3.org/2000/svg" xmlns:xlink="http://www.w3.org/1999/xlink">
    <!-- Generator: Sketch 40.2 (33826) - http://www.bohemiancoding.com/sketch -->
    <title>Oval 1</title>
    <desc>Created with Sketch.</desc>
    <defs></defs>
    <g id="Symbols" stroke="none" stroke-width="1" fill="none" fill-rule="evenodd">
        <g id="Footer" transform="translate(-1170.000000, -1155.000000)" fill="#FFFFFF">
            <g id="Group-10">
                <g id="Group" transform="translate(1020.000000, 1155.000000)">
                    <path d="M190,20 C190,8.95430446 181.045696,0 170,0 C158.954304,0 150,8.95430446 150,20 C150,31.0456955 158.954304,40 170,40 C181.045696,40 190,31.0456955 190,20 Z M187.6,20 C187.6,10.2797879 179.720212,2.4 170,2.4 C160.279788,2.4 152.4,10.2797879 152.4,20 C152.4,29.7202121 160.279788,37.6 170,37.6 C179.720212,37.6 187.6,29.7202121 187.6,20 Z M179.414662,24.6123819 C179.175862,25.6501622 178.326973,26.415349 177.30553,26.5294891 C174.885983,26.7998447 172.437116,26.8011875 169.998769,26.7998447 C167.560645,26.8011875 165.111555,26.7998447 162.692232,26.5294891 C161.670565,26.415349 160.822123,25.6501622 160.583548,24.6123819 C160.243813,23.1343786 160.243813,21.5216451 160.243813,20.0002238 C160.243813,18.4785787 160.247841,16.8656214 160.587352,15.3876181 C160.826152,14.3498378 161.674594,13.5844272 162.696036,13.4705109 C165.115584,13.2001553 167.56445,13.1988125 170.002797,13.2001553 C172.440921,13.1988125 174.890011,13.2001553 177.309335,13.4705109 C178.331001,13.5844272 179.179891,14.3498378 179.418466,15.3876181 C179.758201,16.8656214 179.756187,18.4785787 179.756187,20.0002238 C179.756187,21.5216451 179.754173,23.1343786 179.414662,24.6123819 Z M168.243813,16.4 L173.643813,19.5176915 L168.243813,22.6353829 L168.243813,16.4 Z" id="Oval-1"></path>
                </g>
            </g>
        </g>
    </g>
</svg>