<?xml version="1.0" encoding="UTF-8" standalone="no"?>
<svg width="40px" height="40px" viewBox="0 0 40 40" version="1.1" xmlns="http://www.w3.org/2000/svg" xmlns:xlink="http://www.w3.org/1999/xlink">
    <!-- Generator: Sketch 40.2 (33826) - http://www.bohemiancoding.com/sketch -->
    <title>Oval 1</title>
    <desc>Created with Sketch.</desc>
    <defs></defs>
    <g id="Symbols" stroke="none" stroke-width="1" fill="none" fill-rule="evenodd">
        <g id="Footer" transform="translate(-1120.000000, -1155.000000)" fill="#FFFFFF">
            <g id="Group-10">
                <g id="Group" transform="translate(1020.000000, 1155.000000)">
                    <path d="M120,0 C108.954304,0 100,8.95430446 100,20 C100,31.0456955 108.954304,40 120,40 C131.045696,40 140,31.0456955 140,20 C140,8.95430446 131.045696,0 120,0 Z M120,2.4 C110.279788,2.4 102.4,10.2797879 102.4,20 C102.4,29.7202121 110.279788,37.6 120,37.6 C129.720212,37.6 137.6,29.7202121 137.6,20 C137.6,10.2797879 129.720212,2.4 120,2.4 Z M130.59599,17.6878009 L130.59599,21.9105498 L128.802941,21.9105498 L128.802941,17.6878009 L124.619184,17.6878009 L124.619184,15.9302722 L128.802941,15.9302722 L128.802941,11.7446246 L130.59599,11.7446246 L130.59599,15.9302722 L133.790047,15.9302722 C134.025955,16.5003441 134.23002,17.0869534 134.4,17.6878009 L130.59599,17.6878009 Z M109.380442,29.8206354 C111.711723,28.3935605 114.851542,28.2050789 116.549469,28.0973751 C116.02392,27.4242266 115.417517,26.7106891 115.417517,25.5394106 C115.417517,24.906651 115.606176,24.5296878 115.794835,24.0854097 C115.37709,24.1257986 114.972822,24.1661875 114.595505,24.1661875 C110.620199,24.1661875 108.369771,21.2043339 108.369771,18.2828691 C108.369771,16.5596088 109.164832,14.6451743 110.76843,13.2598346 C112.911053,11.5002243 115.457944,11.2 117.479286,11.2 L125.200814,11.2 L122.802154,12.5476434 L120.484348,12.5476434 C121.346788,13.2598346 123.139045,14.7582633 123.139045,17.6097206 C123.139045,20.3830926 121.562398,21.6890008 119.999226,22.9275942 C119.500629,23.4122612 118.948128,23.937317 118.948128,24.7585583 C118.948128,25.5797995 119.500629,26.0375405 119.918373,26.3741148 L121.265934,27.4242266 C122.923435,28.7974496 124.419228,30.0764319 124.419228,32.6613223 C124.419228,34.3659618 123.622977,36.0768899 122.071542,37.389909 C121.236793,37.5258731 120.380463,37.597649 119.507793,37.6 C121.083156,36.9096051 121.899288,35.646416 121.899288,34.1287862 C121.899288,32.2170443 120.673007,31.2073215 117.816177,29.1744128 C117.519713,29.1474869 117.331055,29.1474869 116.953737,29.1474869 C116.616847,29.1474869 114.595505,29.2148017 113.018858,29.7398576 C112.196845,30.036043 109.798186,30.938062 109.798186,33.6037303 C109.798186,33.8934233 109.829054,34.1742821 109.88928,34.4447804 C105.938184,31.5165459 107.649793,31.9298031 107.2,31.9298024 C107.649793,31.1741207 108.34723,30.431169 109.380442,29.8206354 Z M115.121054,12.4359008 C114.15081,12.4359008 113.099712,12.9232603 112.493309,13.6731478 C111.859955,14.4593853 111.671296,15.4691082 111.671296,16.4384421 C111.671296,18.9560177 113.126663,23.1160758 116.36081,23.1160758 C117.290628,23.1160758 118.301299,22.6583348 118.907702,22.065964 C119.770141,21.2043339 119.837519,20.0061294 119.837519,19.3329809 C119.837519,16.6269237 118.233921,12.4359008 115.121054,12.4359008 Z" id="Oval-1"></path>
                </g>
            </g>
        </g>
    </g>
</svg>