<?xml version="1.0" encoding="UTF-8" standalone="no"?>
<svg width="40px" height="40px" viewBox="0 0 40 40" version="1.1" xmlns="http://www.w3.org/2000/svg" xmlns:xlink="http://www.w3.org/1999/xlink">
    <!-- Generator: Sketch 40.2 (33826) - http://www.bohemiancoding.com/sketch -->
    <title>Oval 1</title>
    <desc>Created with Sketch.</desc>
    <defs></defs>
    <g id="Symbols" stroke="none" stroke-width="1" fill="none" fill-rule="evenodd">
        <g id="Footer" transform="translate(-1020.000000, -1155.000000)" fill="#FFFFFF">
            <g id="Group-10">
                <g id="Group" transform="translate(1020.000000, 1155.000000)">
                    <path d="M20,40 C31.0456955,40 40,31.0456955 40,20 C40,8.95430446 31.0456955,0 20,0 C8.95430446,0 0,8.95430446 0,20 C0,31.0456955 8.95430446,40 20,40 Z M20,37.6 C29.7202121,37.6 37.6,29.7202121 37.6,20 C37.6,10.2797879 29.7202121,2.4 20,2.4 C10.2797879,2.4 2.4,10.2797879 2.4,20 C2.4,29.7202121 10.2797879,37.6 20,37.6 Z M21.4516157,28.8 L21.4516157,19.9989696 L24.0549959,19.9989696 L24.4,16.9660858 L21.4516157,16.9660858 L21.4560389,15.4480982 C21.4560389,14.6570754 21.5365767,14.2332273 22.754043,14.2332273 L24.3815703,14.2332273 L24.3815703,11.2 L21.7778216,11.2 C18.6503006,11.2 17.5494942,12.671275 17.5494942,15.1454967 L17.5494942,16.9664292 L15.6,16.9664292 L15.6,19.999313 L17.5494942,19.999313 L17.5494942,28.8 L21.4516157,28.8 Z" id="Oval-1"></path>
                </g>
            </g>
        </g>
    </g>
</svg>