<?xml version="1.0" encoding="UTF-8" standalone="no"?>
<svg width="508px" height="380px" viewBox="0 0 508 380" version="1.1" xmlns="http://www.w3.org/2000/svg" xmlns:xlink="http://www.w3.org/1999/xlink">
    <!-- Generator: Sketch 41.2 (35397) - http://www.bohemiancoding.com/sketch -->
    <title>Shape</title>
    <desc>Created with Sketch.</desc>
    <defs></defs>
    <g id="Page-1" stroke="none" stroke-width="1" fill="none" fill-rule="evenodd">
        <path d="M462.387876,221.910206 C441.124448,216.404124 419.810023,217.330619 399.356649,225.747423 C392.917405,228.399588 390.024355,227.55732 386.764525,221.232474 C379.240633,206.633814 377.616602,191.751134 381.798286,176.053608 C380.36451,170.831546 384.758023,165.205979 380.694023,160.168041 C379.63095,158.698969 378.154023,158.526598 376.524108,158.838041 C373.021066,161.53134 368.882533,161.921134 364.681236,162.099381 C358.495012,162.359897 354.8939,164.344124 354.364324,171.720825 C353.950471,177.467835 352.206795,183.706495 347.2739,188.007938 C338.175012,204.197113 330.400062,221.177629 319.116185,236.881031 C309.58383,220.640928 308.969915,204.653505 314.195058,188.156804 C315.466039,184.133505 317.503923,180.212062 313.908695,176.361134 C304.246888,174.120309 294.959707,174.700103 286.296247,179.998557 C272.027135,219.544021 253.937236,257.346186 234.721498,294.688041 C232.36783,288.807835 233.103351,283.372268 234.401792,278.058144 C237.794996,264.174433 241.419645,250.349485 244.918764,236.48732 C246.60556,229.809897 246.024988,221.731959 238.136278,222.527216 C227.152494,223.633918 229.872942,217.442268 229.674842,211.953814 C229.088386,195.73134 219.61095,189.008866 204.239537,194.24268 C191.455197,198.598969 181.985606,207.613196 173.198579,217.381546 C170.568355,220.304021 168.028355,223.199072 164.513544,225.128454 C150.797544,232.661856 137.091351,240.212887 123.436154,247.857938 C120.384232,249.567938 118.12471,250.441546 115.011985,247.309485 C100.01912,232.225052 81.8664556,220.90732 65.9419305,206.949175 C49.3721081,192.426907 35.5011583,176.325876 39.1218842,151.625876 C41.5618533,134.978351 49.9114903,121.578454 61.3699305,110.192165 C101.537236,70.2784536 150.250317,45.633299 205.220232,33.8474227 C228.180263,28.9250515 251.913081,27.7928866 274.372958,38.1880412 C286.896432,43.9801031 293.459243,53.472268 292.370672,67.6360825 C290.699568,89.3019588 278.599753,105.256082 263.308757,119.037938 C236.669158,143.050412 204.725961,155.19866 169.289529,157.852784 C153.396386,159.043711 138.089699,155.739278 125.48973,144.750619 C123.414579,142.938763 121.676788,139.001649 118.516988,141.608763 C115.888726,143.775155 118.271815,147.009072 119.36627,149.665155 C121.037375,153.715876 124.118718,156.646186 127.284402,159.466804 C137.414981,168.48299 149.542255,172.672784 162.848324,173.942062 C172.588587,172.841237 182.334734,173.078247 192.08088,173.836289 C210.337498,171.946082 228.237143,168.183299 244.920726,160.536289 C283.440463,142.876082 310.968571,115.668866 319.09461,72.3527835 C318.435583,65.9358763 318.470888,59.5189691 319.071073,53.1020619 C315.80732,28.8956701 299.510131,16.1578351 278.487954,8.20525773 C269.012479,4.62463918 258.913282,2.68546392 249.096525,0 L211.830116,0 C199.102656,2.20360825 185.978996,1.74721649 173.547707,6.00556701 C120.611753,24.1437113 70.9905483,47.7526804 31.6077992,89.1158763 C16.2873822,105.205155 3.88159073,122.575464 0,144.948454 L0,164.536082 C2.62630116,178.031959 9.37348263,189.298763 18.6175135,199.286495 C31.5371892,213.244639 45.8690656,225.520206 61.7386718,236.015258 C70.7257606,241.960103 79.293112,248.502371 88.1585946,254.617629 C93.5837992,258.360825 93.6406795,260.950309 87.5564479,264.152887 C73.3775598,271.617732 59.7282471,280.063918 47.3518764,290.227938 C35.0010039,300.372371 22.9874903,310.96732 17.458332,326.895979 C8.22999228,353.474433 18.7528494,375.481134 43.1505792,380 L64.7258687,380 C87.3073514,378.207732 104.50678,366.911546 118.167861,349.570619 C136.040046,326.882268 139.715691,301.034433 133.578502,273.650928 C131.876015,266.056804 133.10973,261.75732 140.115815,259.007216 C143.569822,257.653711 146.323614,254.494227 150.534718,254.317938 C150.96034,259.224639 148.602749,263.255773 149.581483,267.521959 C150.809313,278.520412 150.546486,289.538454 149.781544,300.56433 C150.062023,309.692165 153.863197,317.691753 158.356741,325.262371 C166.335676,338.699485 184.458919,339.310619 193.510734,326.604124 C199.367444,318.381237 203.576587,309.263196 207.836726,298.531134 C206.834456,306.095876 207.950486,312.128866 210.162934,317.881753 C214.67217,329.597113 224.500695,332.253196 234.262533,324.502371 C239.9741,319.969794 244.214625,314.177732 247.686286,307.833299 C258.175799,288.664845 268.743768,269.549278 277.313081,249.387732 C280.539568,241.80732 283.736633,234.12701 288.104649,224.474227 C290.250409,234.990825 292.545236,242.941443 296.672,249.918557 C301.043938,257.305052 299.727846,262.685773 294.816525,269.35732 C286.492386,280.673093 275.261467,289.556082 268.076896,301.680825 C261.384633,312.980928 265.656541,321.32134 278.780201,321.491753 C298.388216,321.746392 315.120834,314.493093 327.87183,299.261753 C331.0179,295.504845 333.336263,291.105464 332.975367,285.859897 C331.722039,279.611443 331.884834,273.337526 332.661544,267.049897 C333.126394,261.56732 328.283722,256.012268 331.592587,250.884227 C340.12071,237.664536 347.424927,223.706392 355.711799,209.540619 C359.389405,216.392371 358.861792,223.530103 363.580896,228.530825 C368.109745,231.97433 373.368232,235.198454 367.595861,241.752474 C363.467135,245.427113 359.414903,249.219278 355.711799,253.344433 C347.499459,262.495773 341.552525,272.906598 339.526409,285.144948 C337.531676,297.183505 345.145792,306.193814 355.98051,305.112577 C384.634456,302.25866 404.485683,277.995464 401.394533,249.299588 C400.93949,245.078454 401.598517,242.42433 406.015568,241.182474 C426.145313,235.539278 446.110301,236.420722 465.702625,243.223505 C481.201529,248.608144 490.818224,260.11 496.341498,275.259072 C500.050486,277.905361 503.594718,282.40268 508,276.169897 L508,266.376082 C501.345004,242.821959 485.822564,227.978454 462.387876,221.910206 Z M70.8812821,352.280188 C63.8071924,354.843891 55.8879422,357.263743 49.8630171,351.23579 C43.5213997,344.890576 46.3638588,336.413212 48.7225363,329.137892 C52.0040902,319.017079 58.6002271,310.705243 66.4981054,303.893005 C77.2811864,294.584064 88.7909112,286.157935 100.90682,278.675706 C110.316272,272.866485 110.90497,273.276362 111.6627,284.756864 C111.812303,287.038777 111.923049,289.32463 111.996879,290.627173 C112.264999,318.187472 95.2335592,343.452064 70.8812821,352.280188 Z M212.724942,230.382248 C206.7856,251.664552 198.552101,272.166212 189.329707,292.281454 C188.115972,294.927837 186.575922,297.455171 184.982149,299.910296 C183.756476,301.799455 182.419378,304.283854 179.850637,303.973548 C176.814311,303.606645 175.903015,300.491876 175.335942,298.159702 C174.114248,293.144065 173.567073,287.964493 173,284.435983 C174.356995,260.440941 182.001535,240.464264 196.28381,222.960276 C196.490742,222.706567 196.679766,222.43139 196.922513,222.214762 C201.568531,218.120284 206.960697,211.771698 212.826418,214.784983 C219.263192,218.089059 214.151578,225.274886 212.724942,230.382248 Z M284,306 C291.666667,297 299.333333,288 307,279 C306.191353,293.737723 296.547565,301.12244 284,306 Z M357,290 C357.984133,275.169727 366.080325,264.962881 375.963495,255 C381.991811,270.599853 374.333898,284.688315 357,290 Z" id="Shape" fill="#9B9B9B"></path>
    </g>
</svg>