<?xml version="1.0" encoding="UTF-8" standalone="no"?>
<svg width="364px" height="512px" viewBox="0 0 364 512" version="1.1" xmlns="http://www.w3.org/2000/svg" xmlns:xlink="http://www.w3.org/1999/xlink">
    <!-- Generator: Sketch 41.2 (35397) - http://www.bohemiancoding.com/sketch -->
    <title>Group 2</title>
    <desc>Created with Sketch.</desc>
    <defs></defs>
    <g id="Page-1" stroke="none" stroke-width="1" fill="none" fill-rule="evenodd">
        <g id="Group-2">
            <polygon id="Shape" fill="#9B9B9B" points="33.644 470.877 0.633 100.62 363.367 100.62 330.321 470.819 181.778 512"></polygon>
            <polygon id="Shape" fill="#B8B8B8" points="182 480.523 302.03 447.246 330.27 130.894 182 130.894"></polygon>
            <polygon id="Shape" fill="#EBEBEB" points="182 268.217 121.91 268.217 117.76 221.716 182 221.716 182 176.305 181.843 176.305 68.132 176.305 69.219 188.488 80.38 313.627 182 313.627"></polygon>
            <polygon id="Shape" fill="#EBEBEB" points="182 386.153 181.801 386.206 131.227 372.55 127.994 336.333 103.419 336.333 82.409 336.333 88.771 407.634 181.791 433.457 182 433.399"></polygon>
            <polygon id="Shape" fill="#9B9B9B" points="34.382 0 57.459 0 57.459 22.8 78.569 22.8 78.569 0 101.647 0 101.647 69.044 78.57 69.044 78.57 45.924 57.46 45.924 57.46 69.044 34.383 69.044 34.383 0"></polygon>
            <polygon id="Shape" fill="#9B9B9B" points="131.994 22.896 111.678 22.896 111.678 0 175.398 0 175.398 22.896 155.073 22.896 155.073 69.044 131.995 69.044 131.995 22.896"></polygon>
            <polygon id="Shape" fill="#9B9B9B" points="185.511 0 209.574 0 224.376 24.26 239.163 0 263.235 0 263.235 69.044 240.253 69.044 240.253 34.822 224.376 59.371 223.979 59.371 208.091 34.822 208.091 69.044 185.511 69.044 185.511 0"></polygon>
            <polygon id="Shape" fill="#9B9B9B" points="274.72 0 297.804 0 297.804 46.222 330.257 46.222 330.257 69.044 274.72 69.044"></polygon>
            <polygon id="Shape" fill="#FFFFFF" points="181.843 268.217 181.843 313.627 237.761 313.627 232.49 372.521 181.843 386.191 181.843 433.435 274.937 407.634 275.62 399.962 286.291 280.411 287.399 268.217 275.162 268.217"></polygon>
            <polygon id="Shape" fill="#FFFFFF" points="181.843 176.305 181.843 204.509 181.843 221.605 181.843 221.716 291.385 221.716 291.385 221.716 291.531 221.716 292.442 211.509 294.511 188.488 295.597 176.305"></polygon>
        </g>
    </g>
</svg>