<?xml version="1.0" encoding="UTF-8" standalone="no"?>
<svg width="397px" height="493px" viewBox="0 0 397 493" version="1.1" xmlns="http://www.w3.org/2000/svg" xmlns:xlink="http://www.w3.org/1999/xlink">
    <!-- Generator: Sketch 41.2 (35397) - http://www.bohemiancoding.com/sketch -->
    <title>Group 3</title>
    <desc>Created with Sketch.</desc>
    <defs></defs>
    <g id="Page-1" stroke="none" stroke-width="1" fill="none" fill-rule="evenodd">
        <g id="Group-3">
            <polygon id="Shape" fill="#9B9B9B" points="0 0 0 266.568218 198.474434 379.672848 198.474434 302.790041 65.6978364 227.124635 65.6978364 108.276163 198.474434 183.941568 198.474434 113.104631"></polygon>
            <polygon id="Shape" fill="#B8B7B8" points="396.948869 0 396.948869 266.568218 198.474434 379.672848 198.474434 302.790041 331.251033 227.124635 331.251033 108.276163 198.474434 183.941568 198.474434 113.104631"></polygon>
            <polygon id="Shape" fill="#B8B7B8" points="0 492.895639 0 226.327421 198.474434 113.222789 198.474434 190.105598 65.6978364 265.771003 65.6978364 378.573598 198.474434 302.908198 198.474434 379.791009"></polygon>
            <polygon id="Shape" fill="#9B9B9B" points="396.948869 492.895639 396.948869 226.327421 198.474434 113.222789 198.474434 190.105598 331.251033 265.771003 331.251033 378.573598 198.474434 302.908198 198.474434 379.791009"></polygon>
        </g>
    </g>
</svg>