<?xml version="1.0" encoding="UTF-8" standalone="no"?>
<svg width="100px" height="61px" viewBox="0 0 100 61" version="1.1" xmlns="http://www.w3.org/2000/svg" xmlns:xlink="http://www.w3.org/1999/xlink">
    <!-- Generator: Sketch 41.2 (35397) - http://www.bohemiancoding.com/sketch -->
    <title>Shape</title>
    <desc>Created with Sketch.</desc>
    <defs></defs>
    <g id="Page-1" stroke="none" stroke-width="1" fill="none" fill-rule="evenodd">
        <path d="M79.9462159,38.2972836 L79.9462159,38.2972836 L79.9462159,38.2972836 C79.9077987,38.2972836 79.9077987,38.2972836 79.9462159,38.2972836 C79.4852094,38.182032 79.1010373,38.0667803 78.7552824,37.9131115 C78.4095275,37.7594426 78.140607,37.5673566 77.9101037,37.3368533 L77.9101037,37.2600189 C78.140607,35.3007411 77.9101037,33.5335494 78.1021898,31.5358545 C78.870534,23.7755779 83.7495198,26.2342794 88.1290818,24.9665114 C90.8567038,24.1981672 93.5843258,22.6230615 94.2758356,19.3960158 C91.2792931,15.9000496 87.9369958,12.8266728 84.2873607,10.2143024 C72.4164426,1.76251602 56.8958894,-1.61819854 42.796773,0.725251322 C47.9446792,9.71487868 58.9704187,13.8255202 68.843642,10.0606336 C60.660776,14.7091161 50.6723012,13.3260965 44.0261237,7.25617718 C43.0656934,7.64034929 42.1436804,8.06293861 41.2216673,8.52394514 C48.7130234,15.7079636 60.4302728,16.514725 68.843642,10.0606336 C68.8052247,10.137468 68.0752977,11.2515671 67.1917019,15.9000496 C65.2324241,25.81169 59.5850941,25.0433458 52.5931617,22.5462271 C38.071456,17.2830692 30.0806761,22.162055 22.8198233,12.1735802 C20.7068767,13.3645137 19.4006915,15.5927119 19.4006915,18.0129962 C19.4006915,20.5101149 20.7837111,22.6230615 22.7814061,23.7755779 C25.4321936,21.9315517 28.4287361,20.7790354 31.5405302,20.3948633 C25.509028,22.2388894 22.9734921,25.0433458 21.7057242,29.077153 C20.1690357,33.9561388 20.8221283,38.9503762 13.6381099,40.2565613 C9.83480599,40.4486474 9.91164041,43.0226005 8.52862082,46.8643216 C6.79984633,51.858559 4.49481368,53.856254 0,58.581571 C1.84402612,60.8097692 3.76488667,61.0786897 5.72416443,60.2719282 C9.75797157,58.581571 12.8697657,53.3568303 15.7894737,49.9761157 C19.0549366,46.211229 26.8920476,47.8247519 32.8082981,44.1366997 C36.8805225,41.6395809 38.8782174,38.2588664 36.1890127,32.534702 C37.9177872,34.4555625 38.9550519,36.8758468 39.1087207,39.4497999 C45.9469842,38.5662041 55.0902804,46.9027388 63.4268152,48.2857584 L63.4268152,48.2857584 C62.5816366,47.2100765 61.8901268,46.0575602 61.390703,44.8666267 C60.4302728,42.561594 60.1229351,40.4486474 60.3150211,38.6046213 C61.0833653,43.1762694 65.6934307,49.0541026 73.1079524,49.5919436 C74.9903957,49.7456124 77.0649251,49.5151092 79.2162889,48.8620166 C81.790242,48.0936724 84.1721091,47.0948249 87.0149827,47.6326658 C89.1279293,48.016838 91.0872071,49.0925199 92.3165578,50.8981288 C94.1605839,53.5873335 98.1943911,54.1635917 100,50.8597116 C95.9277756,40.2181441 84.7099501,39.5266343 79.9462159,38.2972836 L79.9462159,38.2972836 Z" id="Shape" fill="#FFFFFF"></path>
    </g>
</svg>