<?xml version="1.0" encoding="UTF-8" standalone="no"?>
<svg width="363px" height="512px" viewBox="0 0 363 512" version="1.1" xmlns="http://www.w3.org/2000/svg" xmlns:xlink="http://www.w3.org/1999/xlink">
    <!-- Generator: Sketch 41.2 (35397) - http://www.bohemiancoding.com/sketch -->
    <title>Group</title>
    <desc>Created with Sketch.</desc>
    <defs></defs>
    <g id="Page-1" stroke="none" stroke-width="1" fill="none" fill-rule="evenodd">
        <g id="Group">
            <path d="M284.021919,19.1077268 L253.948953,19.1077268 L285.222987,53.0546793 L285.222987,69.2135701 L220.806322,69.2135701 L220.806322,50.294715 L252.074265,50.294715 L220.806322,16.3465439 L220.806322,0.164501188 L284.021919,0.164501188 L284.021919,19.1077268 L284.021919,19.1077268 Z M208.03798,19.1077268 L177.965013,19.1077268 L209.237829,53.0546793 L209.237829,69.2135701 L144.821164,69.2135701 L144.821164,50.294715 L176.092762,50.294715 L144.821164,16.3465439 L144.821164,0.164501188 L208.03798,0.164501188 L208.03798,19.1077268 L208.03798,19.1077268 Z M132.797094,19.8766176 L100.346356,19.8766176 L100.346356,49.5026722 L132.797094,49.5026722 L132.797094,69.2135701 L77.2824564,69.2135701 L77.2824564,0.164501188 L132.797094,0.164501188 L132.797094,19.8766176 L132.797094,19.8766176 Z" id="Shape" fill="#9B9B9B"></path>
            <polygon id="Shape" fill="#9B9B9B" points="33.0622349 470.704917 0.0864865772 100.735653 362.41652 100.735653 329.410319 470.645209 181.029805 511.794876"></polygon>
            <polygon id="Shape" fill="#B8B7B8" points="181.25394 480.342249 301.149916 447.091076 329.35794 130.986812 181.25394 130.986812"></polygon>
            <polygon id="Shape" fill="#FFFFFF" points="181.252721 265.024817 241.275624 265.024817 245.420889 218.559933 181.252721 218.559933 181.252721 173.183195 181.409859 173.183195 294.994752 173.183195 293.90697 185.357501 282.758728 310.3979 181.252721 310.3979"></polygon>
            <polygon id="Shape" fill="#EBEBEB" points="181.524362 382.866157 181.325809 382.922209 130.807903 369.275922 127.577446 333.088097 103.031094 333.088097 82.0453087 333.088097 88.3990268 404.331734 181.314846 430.135268 181.524362 430.076779"></polygon>
            <polygon id="Shape" fill="#FFFFFF" points="237.420272 308.477501 231.958218 369.245458 181.367225 382.90515 181.367225 430.113335 274.357349 404.331734 275.039497 396.667197 282.930483 308.477501"></polygon>
            <polygon id="Shape" fill="#EBEBEB" points="181.409859 173.183195 181.409859 201.365295 181.409859 218.447829 181.409859 218.559933 71.9885034 218.559933 71.843547 218.559933 70.9336107 208.36086 68.8664597 185.357501 67.7823322 173.183195"></polygon>
            <polygon id="Shape" fill="#EBEBEB" points="181.252721 265.029691 181.252721 293.21301 181.252721 310.293107 181.252721 310.405211 131.519285 310.405211 131.374329 310.405211 130.465611 300.207356 128.397242 277.203998 127.313114 265.029691"></polygon>
        </g>
    </g>
</svg>