<?xml version="1.0" encoding="UTF-8" standalone="no"?>
<svg width="302px" height="302px" viewBox="0 0 302 302" version="1.1" xmlns="http://www.w3.org/2000/svg" xmlns:xlink="http://www.w3.org/1999/xlink">
    <!-- Generator: Sketch 41.2 (35397) - http://www.bohemiancoding.com/sketch -->
    <title>Group</title>
    <desc>Created with Sketch.</desc>
    <defs></defs>
    <g id="Page-1" stroke="none" stroke-width="1" fill="none" fill-rule="evenodd">
        <g id="Group" transform="translate(1.000000, 1.000000)" stroke="#4CA6DE" stroke-width="2">
            <path d="M187.513851,150.411111 C187.518345,188.333715 164.677184,222.524506 129.642126,237.038934 C94.6070679,251.553363 54.2784378,243.532742 27.4631069,216.717411 C0.647776057,189.90208 -7.37284517,149.57345 7.14158325,114.538391 C21.6560117,79.5033332 55.8468022,56.6621727 93.7694065,56.6666667 C145.540492,56.6728018 187.507716,98.6400255 187.513851,150.411111" id="Shape-Copy" style="mix-blend-mode: multiply;"></path>
            <path d="M299.736073,150.411111 C299.740567,188.333715 276.899407,222.524506 241.864348,237.038934 C206.82929,251.553363 166.50066,243.532742 139.685329,216.717411 C112.869998,189.90208 104.849377,149.57345 119.363805,114.538391 C133.878234,79.5033332 168.069024,56.6621727 205.991629,56.6666667 C257.762714,56.6728018 299.729938,98.6400255 299.736073,150.411111" id="Shape-Copy-2" style="mix-blend-mode: multiply;"></path>
            <path d="M149.313852,187.51385 C111.392259,187.51385 77.2048782,164.66984 62.6939508,129.634426 C48.1830234,94.5990117 56.2063875,54.2722041 83.0225924,27.4591772 C109.838797,0.646150337 150.166556,-7.37243421 185.20025,7.14264541 C220.233944,21.657725 243.073902,55.8478127 243.069408,93.7694059 C243.063272,145.54483 201.089277,187.513851 149.313852,187.51385" id="Shape-Copy-3" style="mix-blend-mode: multiply;"></path>
            <path d="M149.288889,299.71111 C97.5167084,299.704974 55.5514648,257.73144 55.5555556,205.959259 C55.5596463,154.187079 97.5315224,112.220177 149.303703,112.222222 C201.075884,112.224267 243.044444,154.194485 243.044444,205.966666 C243.038308,257.74209 201.064313,299.711111 149.288889,299.71111" id="Shape-Copy-4" style="mix-blend-mode: multiply;"></path>
            <path d="M176.7,123.014224 C213.308218,159.624161 213.307289,218.97906 176.697925,255.587851 C140.088561,292.196642 80.7336617,292.196642 44.1242976,255.587851 C7.51493352,218.97906 7.51400435,159.624161 44.1222222,123.014224 C61.7028424,105.432778 85.5477758,95.5555556 110.411111,95.5555556 C135.274446,95.5555556 159.11938,105.432778 176.7,123.014224" id="Shape-Copy-5" style="mix-blend-mode: multiply;"></path>
            <path d="M255.588889,44.1253353 C292.197107,80.7352725 292.196178,140.090171 255.586814,176.698962 C218.977449,213.307753 159.622551,213.307753 123.013186,176.698962 C86.4038224,140.090171 86.4028932,80.7352725 123.011111,44.1253353 C140.591731,26.5438895 164.436665,16.6666667 189.3,16.6666667 C214.163335,16.6666667 238.008269,26.5438895 255.588889,44.1253353" id="Shape-Copy-6" style="mix-blend-mode: multiply;"></path>
            <path d="M176.696887,176.7 C140.08695,213.308218 80.7320509,213.307289 44.1232599,176.697925 C7.51446892,140.088561 7.51446892,80.7336617 44.1232599,44.1242976 C80.7320509,7.51493352 140.08695,7.51400435 176.696887,44.1222222 C194.278333,61.7028424 204.155556,85.5477758 204.155556,110.411111 C204.155556,135.274446 194.278333,159.11938 176.696887,176.7" id="Shape-Copy-7" style="mix-blend-mode: multiply;"></path>
            <path d="M255.585776,255.588889 C218.975839,292.197107 159.62094,292.196178 123.012149,255.586814 C86.4033578,218.977449 86.4033578,159.622551 123.012149,123.013186 C159.62094,86.4038224 218.975839,86.4028932 255.585776,123.011111 C273.167222,140.591731 283.044444,164.436665 283.044444,189.3 C283.044444,214.163335 273.167222,238.008269 255.585776,255.588889" id="Shape-Copy-8" style="mix-blend-mode: multiply;"></path>
        </g>
    </g>
</svg>